<svg width="760" height="1080" viewBox="0 0 760 1080" fill="none" xmlns="http://www.w3.org/2000/svg">
<g clip-path="url(#clip0_63_42)">
<rect width="760" height="1080" fill="#7000FF"/>
<line x1="-25.8558" y1="236.621" x2="280.356" y2="-20.3209" stroke="#6700EA" stroke-width="40"/>
<line x1="-32.0697" y1="771.015" x2="981.119" y2="-79.1511" stroke="#6700EA" stroke-width="50"/>
<line x1="180.517" y1="1085.79" x2="1480.2" y2="-4.77238" stroke="#6700EA" stroke-width="30"/>
<line x1="-72.3508" y1="464.914" x2="507.784" y2="-21.8766" stroke="#6700EA" stroke-width="60"/>
<line x1="-72.2836" y1="637.818" x2="753.363" y2="-54.9814" stroke="#6700EA" stroke-width="60"/>
<line x1="657.861" y1="1064.5" x2="1483.51" y2="371.698" stroke="#6700EA" stroke-width="100"/>
<line x1="453.603" y1="1077.64" x2="1463.12" y2="230.556" stroke="#6700EA" stroke-width="100"/>
<line x1="-62.6418" y1="567.102" x2="644.775" y2="-26.4907" stroke="#6700EA" stroke-width="30"/>
<line x1="-27.2332" y1="312.558" x2="390.805" y2="-38.2182" stroke="#6700EA" stroke-width="10"/>
<line x1="-62.688" y1="126.293" x2="149.693" y2="-51.9159" stroke="#6700EA" stroke-width="70"/>
<line x1="-60.4374" y1="1021.03" x2="1207.59" y2="-42.9713" stroke="#6700EA" stroke-width="90"/>
<line x1="-35.6418" y1="710.947" x2="896.831" y2="-71.4907" stroke="#6700EA" stroke-width="30"/>
<line x1="54.0892" y1="1073.31" x2="1370.73" y2="-31.4768" stroke="#6700EA" stroke-width="48"/>
<line x1="-40.8327" y1="357.509" x2="418.397" y2="-27.8304" stroke="#6700EA" stroke-width="20"/>
<line x1="-46.4279" y1="894.289" x2="1115.47" y2="-80.6604" stroke="#6700EA" stroke-width="20"/>
<line x1="260.367" y1="1072.73" x2="1481.71" y2="47.8996" stroke="#6700EA" stroke-width="101"/>
<line x1="351.095" y1="565.257" x2="480.224" y2="456.905" stroke="white" stroke-width="34" stroke-linecap="round"/>
<line x1="665.233" y1="1028.07" x2="962.341" y2="778.767" stroke="white" stroke-width="20" stroke-linecap="round"/>
<line x1="622.356" y1="406.71" x2="760.677" y2="290.644" stroke="#6F8EFF" stroke-width="22" stroke-linecap="round"/>
<line x1="144.849" y1="585.069" x2="206.722" y2="533.151" stroke="#6F8EFF" stroke-width="30" stroke-linecap="round"/>
<line x1="55.5826" y1="480.534" x2="212.205" y2="349.112" stroke="#6F8EFF" stroke-width="19" stroke-linecap="round"/>
<line x1="385.616" y1="92.241" x2="442.815" y2="44.2455" stroke="#8D55E9" stroke-width="32" stroke-linecap="round"/>
<line x1="703.238" y1="629.869" x2="935.548" y2="434.938" stroke="#EC6C5A" stroke-width="12" stroke-linecap="round"/>
<line x1="-12.2605" y1="806.331" x2="271.461" y2="568.26" stroke="#EC6C5A" stroke-width="12" stroke-linecap="round"/>
<line x1="353.74" y1="1049.18" x2="512.142" y2="916.26" stroke="#8D55E9" stroke-width="12" stroke-linecap="round"/>
<line x1="67.6023" y1="265.283" x2="140.162" y2="204.398" stroke="#E350F0" stroke-width="26" stroke-linecap="round"/>
<line x1="15.6023" y1="994.422" x2="147.916" y2="883.398" stroke="white" stroke-width="26" stroke-linecap="round"/>
<line x1="-23.9118" y1="434.87" x2="319.269" y2="146.907" stroke="white" stroke-linecap="round"/>
<line x1="308.062" y1="437.457" x2="601.851" y2="190.938" stroke="white" stroke-linecap="round"/>
<line x1="-45.0883" y1="633.791" x2="198.445" y2="429.442" stroke="white" stroke-linecap="round"/>
<line x1="53.0616" y1="181.618" x2="212.375" y2="47.9384" stroke="white" stroke-linecap="round"/>
<line x1="525.465" y1="599.817" x2="605.649" y2="532.535" stroke="#E350F0" stroke-width="40" stroke-linecap="round"/>
<line x1="411.748" y1="897.93" x2="572.539" y2="763.01" stroke="#E350F0" stroke-width="26" stroke-linecap="round"/>
<line x1="315.39" y1="859.374" x2="349.669" y2="830.61" stroke="white" stroke-width="55" stroke-linecap="round"/>
<line x1="567.157" y1="138.564" x2="695.534" y2="30.843" stroke="#F4DC5A" stroke-width="35" stroke-linecap="round"/>
<line x1="712.65" y1="734.972" x2="800.39" y2="661.35" stroke="#FF5761" stroke-width="43" stroke-linecap="round"/>
<line x1="323.081" y1="337.736" x2="376.492" y2="292.919" stroke="#6E8EFF" stroke-width="50" stroke-linecap="round"/>
<line x1="709.87" y1="242.072" x2="806.561" y2="160.939" stroke="#6E8EFF" stroke-width="32" stroke-linecap="round"/>
<line x1="338.123" y1="220.745" x2="691.917" y2="-76.1233" stroke="#F4DC5A" stroke-width="2" stroke-linecap="round"/>
<line x1="183.417" y1="117.058" x2="345.711" y2="-19.1224" stroke="#E350F0" stroke-width="4" stroke-linecap="round"/>
<line x1="66.2465" y1="891.738" x2="460.699" y2="560.753" stroke="white" stroke-width="4" stroke-linecap="round"/>
<line x1="640.362" y1="921.199" x2="837.71" y2="755.604" stroke="white" stroke-width="3" stroke-linecap="round"/>
<line x1="603.123" y1="627.149" x2="962.166" y2="325.877" stroke="#9E8F4D" stroke-width="2" stroke-linecap="round"/>
<line x1="513.493" y1="315.342" x2="767.14" y2="102.507" stroke="#FF5761" stroke-width="8" stroke-linecap="round"/>
<line x1="-9.61662" y1="129.026" x2="83.1898" y2="51.1525" stroke="#F4DC5A" stroke-width="24" stroke-linecap="round"/>
</g>
<defs>
<clipPath id="clip0_63_42">
<rect width="760" height="1080" fill="white"/>
</clipPath>
</defs>
</svg>
